<svg width="72" height="56" viewBox="0 0 72 56" fill="none" xmlns="http://www.w3.org/2000/svg">
<rect x="1.63635" y="26.1818" width="70.3637" height="29.4546" rx="14.7273" fill="#2D2796"/>
<path d="M14.7576 43.5271H17.1027V44.9091H12.9673V37.5595H14.7576V43.5271ZM19.7155 37.5595V41.9567C19.7155 42.3964 19.8237 42.7349 20.0401 42.9723C20.2565 43.2096 20.574 43.3282 20.9928 43.3282C21.4116 43.3282 21.7327 43.2096 21.956 42.9723C22.1794 42.7349 22.291 42.3964 22.291 41.9567V37.5595H24.0813V41.9462C24.0813 42.6023 23.9417 43.1572 23.6626 43.6109C23.3834 44.0646 23.0065 44.4066 22.5318 44.6369C22.0642 44.8672 21.5407 44.9824 20.9614 44.9824C20.3821 44.9824 19.8621 44.8707 19.4015 44.6474C18.9478 44.4171 18.5883 44.075 18.3231 43.6214C18.0579 43.1607 17.9253 42.6023 17.9253 41.9462V37.5595H19.7155ZM29.8404 44.9091L28.3432 42.6582L27.0241 44.9091H24.993L27.3486 41.1715L24.9406 37.5595H27.0241L28.5003 39.7791L29.7985 37.5595H31.8296L29.4949 41.2657L31.9238 44.9091H29.8404ZM32.5189 41.2238C32.5189 40.498 32.676 39.8523 32.9901 39.287C33.3042 38.7147 33.7404 38.2714 34.2988 37.9574C34.8641 37.6363 35.5028 37.4758 36.2147 37.4758C37.0871 37.4758 37.834 37.7061 38.4552 38.1667C39.0763 38.6274 39.4916 39.2556 39.701 40.0513H37.7328C37.5862 39.7442 37.3768 39.5103 37.1046 39.3498C36.8394 39.1893 36.5357 39.109 36.1937 39.109C35.6423 39.109 35.1956 39.3009 34.8536 39.6848C34.5116 40.0687 34.3406 40.5817 34.3406 41.2238C34.3406 41.866 34.5116 42.379 34.8536 42.7629C35.1956 43.1468 35.6423 43.3387 36.1937 43.3387C36.5357 43.3387 36.8394 43.2584 37.1046 43.0979C37.3768 42.9374 37.5862 42.7035 37.7328 42.3964H39.701C39.4916 43.1921 39.0763 43.8203 38.4552 44.2809C37.834 44.7346 37.0871 44.9615 36.2147 44.9615C35.5028 44.9615 34.8641 44.8044 34.2988 44.4903C33.7404 44.1693 33.3042 43.7261 32.9901 43.1607C32.676 42.5954 32.5189 41.9497 32.5189 41.2238ZM45.3726 43.6109H42.6296L42.1898 44.9091H40.3158L42.975 37.5595H45.048L47.7073 44.9091H45.8123L45.3726 43.6109ZM44.9119 42.2289L44.0011 39.5383L43.1007 42.2289H44.9119ZM52.2647 44.9091L50.7361 42.1347H50.3069V44.9091H48.5166V37.5595H51.5214C52.1007 37.5595 52.5927 37.6607 52.9976 37.8631C53.4094 38.0655 53.7165 38.3447 53.9189 38.7007C54.1213 39.0497 54.2225 39.4405 54.2225 39.8733C54.2225 40.3619 54.0829 40.7981 53.8037 41.182C53.5315 41.5659 53.1267 41.8381 52.5893 41.9986L54.2853 44.9091H52.2647ZM50.3069 40.8679H51.4167C51.7447 40.8679 51.989 40.7876 52.1495 40.6271C52.317 40.4666 52.4008 40.2397 52.4008 39.9466C52.4008 39.6674 52.317 39.4475 52.1495 39.287C51.989 39.1265 51.7447 39.0462 51.4167 39.0462H50.3069V40.8679ZM60.6334 37.5595V38.9938H58.6861V44.9091H56.8958V38.9938H54.9485V37.5595H60.6334Z" fill="white"/>
<path d="M4.46574 7.00157C4.46951 6.6761 4.60243 6.36546 4.83524 6.13799C5.06806 5.91052 5.3817 5.78485 5.70717 5.78863L6.6202 5.79922C8.17464 5.81727 9.09517 6.87366 9.61567 7.85176C9.96322 8.50384 10.2114 9.25786 10.4048 9.94088L10.5685 9.93624L31.0184 10.1736C32.3765 10.1894 33.3431 11.4999 32.9549 12.803L29.8421 23.255C29.563 24.1925 28.9861 25.0135 28.1986 25.5938C27.4111 26.174 26.456 26.4819 25.4779 26.4708L15.7455 26.3578C14.7596 26.3464 13.8048 26.0115 13.0278 25.4047C12.2507 24.7979 11.6945 23.9526 11.4446 22.9989L10.2536 18.4488L8.27263 11.4741L8.27115 11.461C8.02666 10.5302 7.79785 9.65861 7.44867 9.00651C7.11401 8.37258 6.84043 8.25649 6.59335 8.25362L5.67868 8.24301C5.35321 8.23923 5.04257 8.10632 4.8151 7.8735C4.58763 7.64069 4.46196 7.32705 4.46574 7.00157ZM14.7833 34.5323C15.6512 34.5424 16.4876 34.2072 17.1084 33.6006C17.7293 32.994 18.0837 32.1657 18.0938 31.2978C18.1039 30.4298 17.7687 29.5935 17.1621 28.9726C16.5555 28.3518 15.7272 27.9973 14.8593 27.9873C13.9913 27.9772 13.155 28.3123 12.5341 28.9189C11.9133 29.5255 11.5588 30.3539 11.5488 31.2218C11.5387 32.0897 11.8738 32.9261 12.4804 33.5469C13.087 34.1678 13.9154 34.5222 14.7833 34.5323ZM26.2371 34.6652C27.105 34.6753 27.9414 34.3402 28.5622 33.7336C29.183 33.127 29.5375 32.2986 29.5476 31.4307C29.5576 30.5628 29.2225 29.7264 28.6159 29.1056C28.0093 28.4847 27.181 28.1303 26.313 28.1202C25.4451 28.1101 24.6087 28.4452 23.9879 29.0518C23.3671 29.6584 23.0126 30.4868 23.0025 31.3547C22.9925 32.2226 23.3276 33.059 23.9342 33.6799C24.5408 34.3007 25.3691 34.6551 26.2371 34.6652Z" fill="#9997AD"/>
</svg>
